<?xml version="1.0" standalone="no"?>
<!DOCTYPE svg PUBLIC "-//W3C//DTD SVG 20010904//EN"
 "http://www.w3.org/TR/2001/REC-SVG-20010904/DTD/svg10.dtd">
<svg version="1.0" xmlns="http://www.w3.org/2000/svg"
 width="24px" height="24px" viewBox="0 0 512.000000 512.000000"
 preserveAspectRatio="xMidYMid meet">

<g transform="translate(0.000000,512.000000) scale(0.100000,-0.100000)"
fill="#663399" stroke="none">
<path d="M2300 5105 c-612 -67 -1151 -329 -1575 -766 -772 -795 -944 -1981
-430 -2966 356 -683 1019 -1177 1774 -1323 399 -78 800 -61 1195 50 658 185
1242 661 1561 1273 460 882 375 1929 -223 2727 -163 217 -401 440 -635 596
-478 319 -1099 471 -1667 409z m522 -550 c398 -53 776 -227 1077 -496 102 -92
281 -292 281 -315 0 -12 -258 -234 -271 -234 -4 0 -22 19 -40 43 -249 320
-586 533 -983 619 -87 19 -131 22 -326 22 -195 0 -239 -3 -326 -22 -549 -119
-989 -488 -1198 -1002 l-26 -65 1048 -1047 1047 -1048 65 26 c376 152 680 434
864 803 42 83 103 247 120 324 l6 27 -435 0 -435 0 0 185 0 185 640 0 640 0 0
-74 c0 -174 -52 -435 -125 -631 -219 -588 -721 -1052 -1324 -1226 l-113 -32
-1205 1206 -1206 1205 32 113 c218 756 878 1327 1656 1433 137 19 399 19 537
1z m-302 -4003 c-6 -2 -65 1 -133 7 -979 90 -1728 831 -1827 1810 -5 57 -10
117 -10 135 0 28 83 -52 990 -959 545 -545 985 -992 980 -993z"/>
</g>
</svg>
